<?xml version="1.0" encoding="utf-8"?>
<!-- Generator: Adobe Illustrator 19.0.0, SVG Export Plug-In . SVG Version: 6.00 Build 0)  -->
<svg version="1.1" xmlns="http://www.w3.org/2000/svg" xmlns:xlink="http://www.w3.org/1999/xlink" x="0px" y="0px"
	 viewBox="0 0 188.7 188.7" style="enable-background:new 0 0 188.7 188.7;" xml:space="preserve">
<style type="text/css">
	.st0{display:none;}
	.st1{display:inline;}
	.st2{fill:#06E2FF;}
	.st3{fill:#FF034B;}
	.st4{fill:#FFFFFF;}
	.st5{display:inline;fill:#FF034B;}
	.st6{display:inline;fill:#FFB600;}
	.st7{display:inline;fill:#FFFFFF;}
</style>
<g id="Layer_1" class="st0">
	<g class="st1">
		<path class="st2" d="M1150.1,521c0,47.2-38.2,85.4-85.4,85.4c-47.2,0-85.4-38.2-85.4-85.4c0-47.2,38.2-85.4,85.4-85.4
			C1111.9,435.6,1150.1,473.9,1150.1,521z"/>
		<g>
			<g>
				<path class="st3" d="M1057.8,476.8c-12.2,0-22.2,9.9-22.2,22.2c0,12.2,9.9,22.2,22.2,22.2h41.4l7-44.3H1057.8z"/>
				<path class="st4" d="M1103,525.6h-45.2c-14.7,0-26.6-11.9-26.6-26.6c0-14.7,11.9-26.6,26.6-26.6h53.6L1103,525.6z M1057.8,481.2
					c-9.8,0-17.7,7.9-17.7,17.7s7.9,17.7,17.7,17.7h37.6l5.6-35.4H1057.8z"/>
			</g>
			<g>
				<path class="st3" d="M1073.3,565.3c12.2,0,22.2-9.9,22.2-22.2c0-12.2-9.9-22.2-22.2-22.2h-42.4l-7.7,44.3H1073.3z"/>
				<path class="st4" d="M1073.3,569.8h-55.4l9.2-53.2h46.2c14.7,0,26.6,11.9,26.6,26.6C1099.9,557.8,1087.9,569.8,1073.3,569.8z
					 M1028.5,560.8h44.8c9.8,0,17.7-7.9,17.7-17.7c0-9.8-7.9-17.7-17.7-17.7h-38.7L1028.5,560.8z"/>
			</g>
		</g>
	</g>
	<g class="st1">
		<path class="st2" d="M1286.7,250l-15.6,88.6c-4.9,27.9-31.2,50.6-58.9,50.6s-46.2-22.7-41.3-50.6l15.6-88.6H1286.7 M1305.3,234.4
			h-131.9l-17.9,101.4c-3.2,18.1,1.3,36,12.2,49c10.8,12.9,26.6,19.9,44.4,19.9c17.1,0,34.2-6.6,48.2-18.6
			c13.9-11.9,23.1-27.9,26.1-44.9L1305.3,234.4L1305.3,234.4z"/>
		<path class="st2" d="M1550.7,250c28.8,0,48,22.7,43,50.6l-15.9,88.5h-104.1l15.9-88.5C1494.6,272.7,1522,250,1550.7,250
			 M1550.7,234.4c-17.5,0-35.1,6.5-49.4,18.4c-14.4,11.9-24,27.9-27.1,45.1l-15.9,88.5l-3.3,18.3h18.6h104.1h13.1l2.3-12.8
			l15.9-88.5c3.2-18-1-35.2-12-48.3C1585.9,241.8,1569.5,234.4,1550.7,234.4L1550.7,234.4z"/>
		<path class="st2" d="M1383.4,250.1l19.6,0c0.1,0,0.2,0,0.3,0c1.4,0,2.8,0.1,4.2,0.2c13,0.7,23.3,7.9,27.8,18.4
			c3.7,7.2,5.1,16,3.4,25.6c-4.3,24.6-27.1,44.7-51.1,44.8l-9.8,0.1l-8.7,50.1h-49.8l24.5-139.2H1383.4 M1383.4,234.5L1383.4,234.5
			h-52.7L1304,386.6l-3.2,18.3h18.6h49.8h13.1l2.2-12.9l6.5-37.4c14.2-0.8,28.3-6.8,39.9-17c12.3-10.8,20.6-25.2,23.3-40.6
			c2.2-12.4,0.5-24.4-4.7-34.9c-3.5-7.8-9-14.4-16.1-19.2c-7.1-4.8-15.6-7.6-24.6-8.1c-1.8-0.2-3.6-0.3-5.4-0.3l-0.3,0l0,0
			L1383.4,234.5L1383.4,234.5z"/>
		<path class="st2" d="M1129.5,234.4h-66.8c-24.8,0-47.5,19.2-51.8,43.7c-2.1,12.2,0.8,24.3,7.9,33.5h-22.5l-16.4,93.2h94.2
			c24.9,0,47.7-19.3,52-43.9c2.1-12.3-0.8-24.5-8-33.7h0.5h13.1l2.3-12.9l10.9-61.6l3.2-18.3H1129.5z M1110.7,358.2
			c-3,17.1-19.4,31-36.7,31h-75.6l10.9-62h42.5c0,0,0.1,0,0.1,0h32.9C1102.1,327.3,1113.7,341.1,1110.7,358.2z M1118.6,311.6h-33.7
			c0,0,0,0-0.1,0h0h0h-32.9c-17.1,0-28.6-13.8-25.7-30.8c3-17,19.3-30.8,36.4-30.8h66.8L1118.6,311.6z"/>
	</g>
	<g class="st1">
		<g>
			<path class="st2" d="M1168,30.6l-19.2,108.6c-6,34.3,16.7,62.1,50.7,62.1s66.3-27.8,72.3-62.1l19.1-108.6H1168z"/>
		</g>
		<g>
			<path class="st2" d="M1554.7,201.4l19.5-108.6c6.1-34.3-17.5-62.1-52.8-62.1c-35.3,0-68.9,27.8-75,62.1l-19.5,108.6H1554.7z"/>
		</g>
		<g>
			<path class="st2" d="M1424.8,53.6c-5.6-13-18.1-21.7-34.1-22.6c-1.8-0.2-3.6-0.3-5.5-0.3l-24.1,0h-48.5l-30,170.8h61l10.7-61.5
				l12.1-0.1c29.4-0.2,57.4-24.8,62.7-55C1431,73.2,1429.3,62.4,1424.8,53.6z"/>
		</g>
		<g>
			<path class="st2" d="M995.3,121.9h94.9c22.2,0,37,17.8,33.2,39.7c-3.8,21.9-24.9,39.7-47,39.7h-95.1L995.3,121.9z"/>
		</g>
		<g>
			<path class="st2" d="M1132.4,110.2h-86.1c-22.2,0-37.1-17.8-33.3-39.8c3.8-22,24.9-39.8,47.1-39.8h86.1L1132.4,110.2z"/>
		</g>
	</g>
	<g class="st1">
		<g>
			<path class="st4" d="M-44.9,302.4L-64.1,411c-6,34.3,16.7,62.1,50.7,62.1s66.3-27.8,72.3-62.1L78,302.4H-44.9z"/>
		</g>
		<g>
			<path class="st4" d="M341.8,473.1l19.5-108.6c6.1-34.3-17.5-62.1-52.8-62.1c-35.3,0-68.9,27.8-75,62.1L214,473.1H341.8z"/>
		</g>
		<g>
			<path class="st4" d="M211.9,325.3c-5.6-13-18.1-21.7-34.1-22.6c-1.8-0.2-3.6-0.3-5.5-0.3l-24.1,0H99.7l-30,170.8h61l10.7-61.5
				l12.1-0.1c29.4-0.2,57.4-24.8,62.7-55C218.2,344.9,216.5,334.1,211.9,325.3z"/>
		</g>
		<g>
			<path class="st4" d="M-217.6,393.6h94.9c22.2,0,37,17.8,33.2,39.7c-3.8,21.9-24.9,39.7-47,39.7h-95.1L-217.6,393.6z"/>
		</g>
		<g>
			<path class="st4" d="M-80.4,382h-86.1c-22.2,0-37.1-17.8-33.3-39.8c3.8-22,24.9-39.8,47.1-39.8h86.1L-80.4,382z"/>
		</g>
	</g>
	<g class="st1">
		<path class="st2" d="M1964.1,521c0,47.2-38.2,85.4-85.4,85.4c-47.2,0-85.4-38.2-85.4-85.4c0-47.2,38.2-85.4,85.4-85.4
			C1925.9,435.6,1964.1,473.9,1964.1,521z"/>
		<g>
			<g>
				<path class="st3" d="M1871.8,476.8c-12.2,0-22.2,9.9-22.2,22.2c0,12.2,9.9,22.2,22.2,22.2h41.4l7-44.3H1871.8z"/>
				<path class="st4" d="M1917,525.6h-45.2c-14.7,0-26.6-11.9-26.6-26.6c0-14.7,11.9-26.6,26.6-26.6h53.6L1917,525.6z M1871.8,481.2
					c-9.8,0-17.7,7.9-17.7,17.7s7.9,17.7,17.7,17.7h37.6l5.6-35.4H1871.8z"/>
			</g>
			<g>
				<path class="st3" d="M1887.3,565.3c12.2,0,22.2-9.9,22.2-22.2c0-12.2-9.9-22.2-22.2-22.2h-42.4l-7.7,44.3H1887.3z"/>
				<path class="st4" d="M1887.3,569.8h-55.4l9.2-53.2h46.2c14.7,0,26.6,11.9,26.6,26.6C1913.9,557.8,1901.9,569.8,1887.3,569.8z
					 M1842.5,560.8h44.8c9.8,0,17.7-7.9,17.7-17.7c0-9.8-7.9-17.7-17.7-17.7h-38.7L1842.5,560.8z"/>
			</g>
		</g>
	</g>
	<polygon class="st5" points="2135.3,205.9 1880.5,205.9 1916.5,170.2 1891.2,127 2154.5,127 	"/>
	<path class="st6" d="M2105.7,54.6l-248.5,0.1c-21.9,0-39.7,17.8-39.7,39.7c0,13.3,6.6,25.1,16.7,32.3h-23.9l-14.8,79.4h84.7
		c21.9,0,39.7-17.8,39.7-39.7c0-13.3-6.6-25.1-16.7-32.3l186.8-0.6L2105.7,54.6z M1906.6,166.4c0,14.6-11.8,26.4-26.4,26.4h-68.5
		l9.5-52.8h59C1894.8,140,1906.6,151.8,1906.6,166.4z M1913.4,120.8h-56.2c-14.6,0-26.4-11.8-26.4-26.4c0-14.6,11.8-26.4,26.4-26.4
		h65.7L1913.4,120.8z"/>
	<g class="st1">
		<path class="st4" d="M1953.8,161.4c-4.4-1.9-8.6-3.7-8.6-5.9c0-1.9,2.9-3.8,8.5-3.8l0.4,0c5.9,0,10.3,1.7,11.1,2l1.2,0.5l5.5-11.3
			l-1.3-0.5c-4.3-1.7-9.4-2.5-15.7-2.5c-15.8,0-26.9,7.2-26.9,17.5c0,7.7,8.1,12,14.2,14.5c5.9,2.4,7.9,3.9,7.9,5.9
			c0,3.1-4.6,4.4-8.9,4.4c-7.1,0-12.3-1.9-14.8-3.1l-1.1-0.5l-5.8,11.1l1.1,0.6c3.1,1.7,9.7,3.6,19.1,3.7h0
			c16.8,0,27.6-7.1,27.6-18.1C1967.4,169.7,1963.1,165.1,1953.8,161.4z"/>
		<path class="st4" d="M2027.9,170.6c0-17,13.3-30.6,31.2-30.6c15.1,0,26.8,9.5,26.8,23.8c0,17.1-13.3,30.8-31.2,30.8
			C2039.5,194.6,2027.9,185.1,2027.9,170.6z M2071.6,164.8c0-7.7-5.5-12.8-13.4-12.8c-9.3,0-16.2,8-16.2,17.7
			c0,7.7,5.5,12.8,13.4,12.8C2064.7,182.6,2071.6,174.6,2071.6,164.8z"/>
		<path class="st4" d="M2095.1,193.4l8.9-40.5h-14.7l2.7-11.8h42.7l-2.6,11.8h-14.7l-8.9,40.5H2095.1z"/>
		<path class="st4" d="M1972.5,193.7l11.6-52.4h25.4c9.2,0,15.4,6.8,15.4,15c0,7.7-5.1,19.8-22.4,19.8h-12.6l-3.9,17.6H1972.5z
			 M2003.1,164.3c4.3,0,7.7-2.7,7.7-6.5c0-2.9-2.2-4.7-5.4-4.7H1995l-2.5,11.2H2003.1z"/>
	</g>
	<g class="st1">
		<path class="st4" d="M1930.1,97.4c0-17,13.3-30.6,31.2-30.6c15.1,0,26.8,9.5,26.8,23.8c0,17.1-13.3,30.8-31.2,30.8
			C1941.7,121.4,1930.1,111.9,1930.1,97.4z M1973.8,91.6c0-7.7-5.5-12.8-13.4-12.8c-9.3,0-16.2,8-16.2,17.7
			c0,7.7,5.5,12.8,13.4,12.8C1966.9,109.3,1973.8,101.3,1973.8,91.6z"/>
		<path class="st4" d="M1990.8,120.4l11.6-52.8h38.7l-2.7,11.9h-25l-1.8,8.2h24.5l-2.6,11.9H2009l-4.6,20.8H1990.8z"/>
		<path class="st4" d="M2051.2,120.4l8.9-40.9h-14.8l2.7-11.9h43.1l-2.6,11.9h-14.8l-8.9,40.9H2051.2z"/>
	</g>
	<polygon class="st5" points="2135.3,397.1 1880.5,397.1 1916.5,361.4 1891.2,318.2 2154.5,318.2 	"/>
	<path class="st5" d="M2105.7,245.8l-248.5,0.1c-21.9,0-39.7,17.8-39.7,39.7c0,13.3,6.6,25.1,16.7,32.3h-23.9l-14.8,79.4h84.7
		c21.9,0,39.7-17.8,39.7-39.7c0-13.3-6.6-25.1-16.7-32.3l186.8-0.6L2105.7,245.8z M1906.6,357.6c0,14.6-11.8,26.4-26.4,26.4h-68.5
		l9.5-52.8h59C1894.8,331.2,1906.6,343,1906.6,357.6z M1913.4,312h-56.2c-14.6,0-26.4-11.8-26.4-26.4c0-14.6,11.8-26.4,26.4-26.4
		h65.7L1913.4,312z"/>
	<g class="st1">
		<path class="st4" d="M1953.8,352.6c-4.4-1.9-8.6-3.7-8.6-5.9c0-1.9,2.9-3.8,8.5-3.8l0.4,0c5.9,0,10.3,1.7,11.1,2l1.2,0.5l5.5-11.3
			l-1.3-0.5c-4.3-1.7-9.4-2.5-15.7-2.5c-15.8,0-26.9,7.2-26.9,17.5c0,7.7,8.1,12,14.2,14.5c5.9,2.4,7.9,3.9,7.9,5.9
			c0,3.1-4.6,4.4-8.9,4.4c-7.1,0-12.3-1.9-14.8-3.1l-1.1-0.5l-5.8,11.1l1.1,0.6c3.1,1.7,9.7,3.6,19.1,3.7h0
			c16.8,0,27.6-7.1,27.6-18.1C1967.4,360.9,1963.1,356.3,1953.8,352.6z"/>
		<path class="st4" d="M2027.9,361.8c0-17,13.3-30.6,31.2-30.6c15.1,0,26.8,9.5,26.8,23.8c0,17.1-13.3,30.8-31.2,30.8
			C2039.5,385.8,2027.9,376.3,2027.9,361.8z M2071.6,356c0-7.7-5.5-12.8-13.4-12.8c-9.3,0-16.2,8-16.2,17.7
			c0,7.7,5.5,12.8,13.4,12.8C2064.7,373.8,2071.6,365.8,2071.6,356z"/>
		<path class="st4" d="M2095.1,384.7l8.9-40.5h-14.7l2.7-11.8h42.7l-2.6,11.8h-14.7l-8.9,40.5H2095.1z"/>
		<path class="st4" d="M1972.5,384.9l11.6-52.4h25.4c9.2,0,15.4,6.8,15.4,15c0,7.7-5.1,19.8-22.4,19.8h-12.6l-3.9,17.6H1972.5z
			 M2003.1,355.5c4.3,0,7.7-2.7,7.7-6.5c0-2.9-2.2-4.7-5.4-4.7H1995l-2.5,11.2H2003.1z"/>
	</g>
	<path class="st7" d="M1930.1,288.6c0-17,13.3-30.6,31.2-30.6c15.1,0,26.8,9.5,26.8,23.8c0,17.1-13.3,30.8-31.2,30.8
		C1941.7,312.6,1930.1,303.1,1930.1,288.6z M1973.8,282.8c0-7.7-5.5-12.8-13.4-12.8c-9.3,0-16.2,8-16.2,17.7
		c0,7.7,5.5,12.8,13.4,12.8C1966.9,300.5,1973.8,292.5,1973.8,282.8z"/>
	<path class="st7" d="M1990.8,311.6l11.6-52.8h38.7l-2.7,11.9h-25l-1.8,8.2h24.5l-2.6,11.9H2009l-4.6,20.8H1990.8z"/>
	<path class="st7" d="M2051.2,311.6l8.9-40.9h-14.8l2.7-11.9h43.1l-2.6,11.9h-14.8l-8.9,40.9H2051.2z"/>
</g>
<g id="Artboard_7">
	<g>
		<path class="st2" d="M179.8,94.4c0,47.2-38.2,85.4-85.4,85.4C47.2,179.8,9,141.5,9,94.4C9,47.2,47.2,9,94.4,9
			C141.5,9,179.8,47.2,179.8,94.4z"/>
		<g>
			<g>
				<path class="st3" d="M87.5,50.1c-12.2,0-22.2,9.9-22.2,22.2c0,12.2,9.9,22.2,22.2,22.2h41.4l7-44.3H87.5z"/>
				<path class="st4" d="M132.7,98.9H87.5c-14.7,0-26.6-11.9-26.6-26.6c0-14.7,11.9-26.6,26.6-26.6h53.6L132.7,98.9z M87.5,54.6
					c-9.8,0-17.7,7.9-17.7,17.7S77.7,90,87.5,90h37.6l5.6-35.4H87.5z"/>
			</g>
			<g>
				<path class="st3" d="M102.9,138.6c12.2,0,22.2-9.9,22.2-22.2c0-12.2-9.9-22.2-22.2-22.2H60.5l-7.7,44.3H102.9z"/>
				<path class="st4" d="M102.9,143.1H47.5l9.2-53.2h46.2c14.7,0,26.6,11.9,26.6,26.6S117.6,143.1,102.9,143.1z M58.1,134.2h44.8
					c9.8,0,17.7-7.9,17.7-17.7s-7.9-17.7-17.7-17.7H64.3L58.1,134.2z"/>
			</g>
		</g>
	</g>
</g>
</svg>
